<svg width="108.782px" height="108.782px" viewBox="0 0 108.782 108.782" xmlns="http://www.w3.org/2000/svg"><g transform="translate(-37.109 -210.359)"><path d="M144.391,264.75c0,13.468-23.68,24.386-52.891,24.386S38.609,278.218,38.609,264.75c0-7.3,6.949-13.843,17.962-18.312" fill="none" stroke="#000" stroke-linecap="round" stroke-linejoin="round" stroke-width="3"/><path d="M103.535,312.32c-3.635,3.408-7.719,5.321-12.035,5.321-15.187,0-27.5-23.68-27.5-52.891s12.312-52.891,27.5-52.891c7.372,0,14.066,5.579,19,14.662" fill="none" stroke="#000" stroke-linecap="round" stroke-linejoin="round" stroke-width="3"/><path d="M73.344,256.069h8.681v8.681H73.344" fill="none" stroke="#000" stroke-linecap="round" stroke-linejoin="round" stroke-width="3"/><path d="M73.344,264.75h8.681v8.681H73.344" fill="none" stroke="#000" stroke-linecap="round" stroke-linejoin="round" stroke-width="3"/><path d="M95.841,264.75H87.159v-8.681h8.681" fill="none" stroke="#000" stroke-linecap="round" stroke-linejoin="round" stroke-width="3"/><rect width="8.681" height="8.681" transform="translate(87.159 264.75)" stroke-width="3" stroke="#000" stroke-linecap="round" stroke-linejoin="round" fill="none"/><path d="M109.656,264.75v8.681h-8.681V256.069h8.681Z" fill="none" stroke="#000" stroke-linecap="round" stroke-linejoin="round" stroke-width="3"/><circle cx="2.858" cy="2.858" r="2.858" transform="translate(115.249 256.069)" fill="none" stroke="#000" stroke-linecap="round" stroke-linejoin="round" stroke-width="3"/><path d="M49.662,244.042l6.909,2.4-2.4,6.909" fill="none" stroke="#000" stroke-linecap="round" stroke-linejoin="round" stroke-width="3"/><path d="M112.166,219.4l-1.662,7.121-7.121-1.662" fill="none" stroke="#000" stroke-linecap="round" stroke-linejoin="round" stroke-width="3"/></g></svg>