<?xml version="1.0" encoding="iso-8859-1"?>
<!-- Generator: Adobe Illustrator 19.0.0, SVG Export Plug-In . SVG Version: 6.00 Build 0)  -->
<svg version="1.1" id="Layer_1" xmlns="http://www.w3.org/2000/svg" xmlns:xlink="http://www.w3.org/1999/xlink" x="0px" y="0px"
	 viewBox="0 0 512 512" style="enable-background:new 0 0 512 512;" xml:space="preserve">
<g>
	<g>
		<polygon points="325.382,0.086 316.658,8.809 307.85,0 297.099,10.75 316.658,30.308 336.131,10.836 		"/>
	</g>
</g>
<g>
	<g>
		<polygon points="483.929,184.237 475.206,192.961 466.398,184.151 455.648,194.902 475.206,214.459 494.679,194.986 		"/>
	</g>
</g>
<g>
	<g>
		<polygon points="45.603,327.953 36.879,336.676 28.071,327.867 17.321,338.617 36.879,358.175 56.352,338.703 		"/>
	</g>
</g>
<g>
	<g>
		<polygon points="316.156,481.778 307.433,490.502 298.625,481.692 287.875,492.443 307.433,512 326.906,492.527 		"/>
	</g>
</g>
<g>
	<g>
		<polygon points="193.825,338.124 185.102,346.847 176.292,338.039 165.544,348.786 185.102,368.346 204.575,348.874 		"/>
	</g>
</g>
<g>
	<g>
		<path d="M430.856,393.798l13.754-13.754L220.754,138.833c3.485-26.364-4.382-52.965-21.489-73.114l4.014-4.014l-10.749-10.75
			l-4.021,4.021c-16.947-14.446-38.235-22.343-60.749-22.343c-25.065,0-48.631,9.762-66.355,27.486
			c-17.725,17.724-27.486,41.289-27.486,66.356c0,22.513,7.896,43.802,22.342,60.748l-4.02,4.02l10.749,10.75l4.028-4.028
			c17.011,14.441,38.61,22.322,60.796,22.322c4.092,0,8.205-0.273,12.311-0.816l241.208,223.852l13.755-13.755l42.313,42.313
			l35.771-35.77L430.856,393.798z M49.121,126.474c0-21.006,8.18-40.753,23.033-55.605c14.853-14.854,34.601-23.034,55.606-23.034
			c18.45,0,35.928,6.315,49.973,17.917L67.038,176.445C55.436,162.401,49.121,144.924,49.121,126.474z M141.303,203.921
			c-22.717,3.948-45.924-2.276-63.508-16.732l110.679-110.68c14.457,17.585,20.682,40.797,16.73,63.513
			c-0.696,4.003-1.69,7.914-2.969,11.709c-3.838,11.384-10.243,21.722-18.87,30.349c-11.502,11.503-26.045,19.054-42.058,21.841
			L141.303,203.921z M157.995,215.315c0.996-0.337,1.982-0.696,2.964-1.065c0.288-0.108,0.573-0.222,0.859-0.332
			c0.745-0.289,1.486-0.587,2.223-0.895c0.296-0.124,0.592-0.246,0.887-0.373c0.919-0.395,1.833-0.803,2.738-1.227
			c0.065-0.03,0.132-0.059,0.197-0.089c0.969-0.457,1.928-0.935,2.88-1.426c0.27-0.139,0.536-0.282,0.805-0.424
			c0.709-0.374,1.415-0.757,2.114-1.15c0.276-0.154,0.551-0.308,0.826-0.465c0.888-0.51,1.77-1.032,2.64-1.571
			c0.042-0.025,0.084-0.05,0.126-0.075c0.911-0.567,1.809-1.152,2.701-1.751c0.256-0.172,0.51-0.349,0.764-0.523
			c0.662-0.454,1.319-0.916,1.97-1.386c0.256-0.185,0.513-0.37,0.768-0.557c0.846-0.625,1.685-1.262,2.511-1.916
			c0.019-0.016,0.041-0.03,0.06-0.047c0.844-0.67,1.675-1.361,2.498-2.062c0.241-0.206,0.479-0.416,0.72-0.623
			c0.608-0.528,1.209-1.065,1.805-1.61c0.236-0.216,0.473-0.431,0.707-0.649c0.795-0.742,1.582-1.495,2.354-2.267
			c0.771-0.771,1.523-1.559,2.265-2.353c0.22-0.236,0.436-0.474,0.654-0.711c0.543-0.594,1.079-1.195,1.606-1.801
			c0.209-0.24,0.42-0.48,0.626-0.723c0.7-0.822,1.391-1.652,2.059-2.495c0.02-0.026,0.04-0.053,0.061-0.079
			c0.65-0.82,1.28-1.652,1.9-2.491c0.192-0.259,0.379-0.521,0.568-0.781c0.466-0.645,0.924-1.294,1.373-1.95
			c0.178-0.26,0.358-0.519,0.534-0.781c0.596-0.888,1.18-1.784,1.744-2.691c0.033-0.054,0.064-0.108,0.097-0.162
			c0.531-0.858,1.045-1.727,1.548-2.603c0.161-0.28,0.317-0.561,0.475-0.843c0.388-0.692,0.767-1.391,1.138-2.092
			c0.145-0.275,0.292-0.547,0.434-0.824c0.489-0.95,0.965-1.904,1.421-2.87c0.034-0.072,0.065-0.146,0.099-0.218
			c0.422-0.899,0.826-1.806,1.218-2.719c0.127-0.296,0.25-0.593,0.374-0.89c0.308-0.738,0.607-1.48,0.896-2.227
			c0.11-0.284,0.223-0.567,0.33-0.852c0.37-0.983,0.729-1.97,1.066-2.966l178.379,192.206l-44.779,44.779L157.995,215.315z
			 M384.336,418.82l-3.399,3.399l-19.583-18.175l43.977-43.977l18.175,19.583l-3.399,3.399L384.336,418.82z M405.835,418.82
			l14.272-14.272l31.564,31.565l-14.272,14.271L405.835,418.82z"/>
	</g>
</g>
<g>
	<g>
		<path d="M233.222,204.066l-27.87,27.87l52.556,52.556l27.87-27.87L233.222,204.066z M226.851,231.934l6.371-6.371l31.057,31.058
			l-6.371,6.371L226.851,231.934z"/>
	</g>
</g>
<g>
</g>
<g>
</g>
<g>
</g>
<g>
</g>
<g>
</g>
<g>
</g>
<g>
</g>
<g>
</g>
<g>
</g>
<g>
</g>
<g>
</g>
<g>
</g>
<g>
</g>
<g>
</g>
<g>
</g>
</svg>
