<?xml version="1.0" encoding="iso-8859-1"?>
<!-- Generator: Adobe Illustrator 19.0.0, SVG Export Plug-In . SVG Version: 6.00 Build 0)  -->
<svg version="1.1" id="Layer_1" xmlns="http://www.w3.org/2000/svg" xmlns:xlink="http://www.w3.org/1999/xlink" x="0px" y="0px"
	 viewBox="0 0 512 512" style="enable-background:new 0 0 512 512;" xml:space="preserve">
<g>
	<g>
		<path d="M256,0.084c-77.161,0-139.937,62.776-139.937,139.937c0,50.01,23.855,95.319,68.984,131.03
			c23.775,18.814,47.331,30.234,59.597,35.49l-19.329,37.757c-1.296,2.532-1.182,5.556,0.303,7.982
			c1.483,2.427,4.123,3.906,6.967,3.906h15.246v147.561c0,4.511,3.657,8.168,8.168,8.168c4.512,0,8.168-3.657,8.168-8.168v-147.56
			h15.245c2.843,0,5.484-1.48,6.967-3.906c1.483-2.426,1.599-5.45,0.302-7.982l-19.492-38.083
			c12.074-5.734,35.858-18.26,59.868-37.905c45.062-36.868,68.881-81.231,68.881-128.29C395.937,62.86,333.161,0.084,256,0.084z
			 M245.942,339.852l10.057-19.646l10.057,19.646H245.942z M317.041,255.399c-26.13,21.454-52.641,34.211-61.236,38.066
			c-8.612-3.428-34.994-14.857-60.989-35.515c-41.418-32.915-62.418-72.592-62.418-117.929c0-68.154,55.448-123.602,123.602-123.602
			s123.602,55.448,123.602,123.602C379.602,182.498,358.554,221.316,317.041,255.399z"/>
	</g>
</g>
<g>
	<g>
		<path d="M196.366,299.691c-2.781-3.551-7.915-4.176-11.466-1.396c-22.878,17.913-45.219,28.704-52.975,32.195
			c-8.201-3.269-32.49-13.836-56.669-32.967c-39.042-30.894-58.838-68.156-58.838-110.754c0-55.924,39.863-103.791,94.787-113.817
			c4.438-0.81,7.378-5.064,6.568-9.502c-0.809-4.438-5.062-7.378-9.502-6.568C45.584,68.326,0.084,122.952,0.084,186.77
			c0,47.168,22.489,89.896,65.036,123.563c22.081,17.472,43.967,28.178,55.656,33.221l-19.335,37.771
			c-1.296,2.532-1.182,5.556,0.303,7.982c1.484,2.426,4.124,3.906,6.967,3.906h15.079v110.534c0,4.511,3.657,8.168,8.168,8.168
			c4.511,0,8.168-3.657,8.168-8.168V393.214h15.413c2.844,0,5.484-1.48,6.967-3.906c1.484-2.426,1.599-5.451,0.303-7.982
			l-19.501-38.097c10.771-5.149,30.829-15.759,51.662-32.071C198.522,308.376,199.146,303.242,196.366,299.691z M122.068,376.88
			L122.068,376.88l10.057-19.647l10.057,19.647H122.068z"/>
	</g>
</g>
<g>
	<g>
		<path d="M403.728,56.882c-4.432-0.813-8.691,2.13-9.502,6.568c-0.81,4.438,2.13,8.691,6.568,9.502
			c54.923,10.026,94.785,57.894,94.785,113.817c0,39.772-19.72,76.131-58.614,108.071c-24.347,19.994-49.053,31.943-57.291,35.651
			c-8.086-3.226-31.809-13.547-55.645-32.17c-3.555-2.777-8.686-2.148-11.464,1.407c-2.777,3.555-2.148,8.688,1.408,11.465
			c21.704,16.958,43.06,27.397,54.553,32.36l-19.336,37.772c-1.296,2.532-1.182,5.556,0.302,7.982
			c1.483,2.427,4.123,3.906,6.967,3.906h15.079l-0.001,110.534c0,4.511,3.656,8.168,8.168,8.168c4.511,0,8.168-3.657,8.168-8.168
			l0.001-110.534h15.413c2.844,0,5.484-1.48,6.967-3.906c1.483-2.426,1.599-5.451,0.302-7.982l-19.499-38.093
			c11.509-5.496,33.611-17.222,55.926-35.48c42.48-34.756,64.933-76.591,64.933-120.982
			C511.915,122.951,466.416,68.326,403.728,56.882z M369.816,376.88L369.816,376.88l10.057-19.647l10.057,19.647H369.816z"/>
	</g>
</g>
<g>
	<g>
		<path d="M24.503,364.9C10.991,364.9,0,375.892,0,389.403s10.991,24.503,24.503,24.503s24.503-10.991,24.503-24.503
			S38.014,364.9,24.503,364.9z M24.503,397.571c-4.504,0-8.168-3.663-8.168-8.168c0-4.504,3.663-8.168,8.168-8.168
			c4.504,0,8.168,3.663,8.168,8.168C32.67,393.907,29.007,397.571,24.503,397.571z"/>
	</g>
</g>
<g>
	<g>
		<path d="M193.979,413.906c-13.511,0-24.503,10.991-24.503,24.503s10.991,24.503,24.503,24.503s24.503-10.991,24.503-24.503
			S207.489,413.906,193.979,413.906z M193.979,446.576c-4.504,0-8.168-3.663-8.168-8.168c0-4.504,3.663-8.168,8.168-8.168
			c4.504,0,8.168,3.663,8.168,8.168C202.147,442.912,198.482,446.576,193.979,446.576z"/>
	</g>
</g>
<g>
	<g>
		<path d="M69.937,462.911c-13.511,0-24.503,10.991-24.503,24.503s10.991,24.503,24.503,24.503
			c13.511,0,24.503-10.991,24.503-24.503S83.447,462.911,69.937,462.911z M69.937,495.581c-4.504,0-8.168-3.663-8.168-8.168
			c0-4.504,3.663-8.168,8.168-8.168c4.504,0,8.167,3.663,8.167,8.168C78.104,491.918,74.44,495.581,69.937,495.581z"/>
	</g>
</g>
<g>
	<g>
		<path d="M442.062,462.911c-13.51,0-24.503,10.991-24.503,24.503s10.992,24.503,24.503,24.503s24.503-10.991,24.503-24.503
			S455.572,462.911,442.062,462.911z M442.062,495.581c-4.504,0-8.168-3.663-8.168-8.168c0-4.504,3.663-8.168,8.168-8.168
			c4.504,0,8.168,3.663,8.168,8.168C450.229,491.918,446.566,495.581,442.062,495.581z"/>
	</g>
</g>
<g>
	<g>
		<path d="M317.853,413.906c-13.51,0-24.503,10.991-24.503,24.503s10.992,24.503,24.503,24.503c13.51,0,24.503-10.991,24.503-24.503
			S331.364,413.906,317.853,413.906z M317.853,446.576c-4.504,0-8.167-3.663-8.167-8.168c0-4.504,3.663-8.168,8.167-8.168
			c4.504,0,8.168,3.663,8.168,8.168C326.021,442.912,322.356,446.576,317.853,446.576z"/>
	</g>
</g>
<g>
	<g>
		<path d="M487.497,364.9c-13.51,0-24.503,10.991-24.503,24.503s10.992,24.503,24.503,24.503S512,402.914,512,389.403
			S501.008,364.9,487.497,364.9z M487.497,397.571c-4.504,0-8.168-3.663-8.168-8.168c0-4.504,3.663-8.168,8.168-8.168
			s8.168,3.663,8.168,8.168C495.665,393.907,492.002,397.571,487.497,397.571z"/>
	</g>
</g>
<g>
</g>
<g>
</g>
<g>
</g>
<g>
</g>
<g>
</g>
<g>
</g>
<g>
</g>
<g>
</g>
<g>
</g>
<g>
</g>
<g>
</g>
<g>
</g>
<g>
</g>
<g>
</g>
<g>
</g>
</svg>
