<?xml version="1.0" encoding="utf-8"?>
<!-- Generator: Adobe Illustrator 24.3.0, SVG Export Plug-In . SVG Version: 6.00 Build 0)  -->
<svg version="1.1" id="Слой_1" xmlns="http://www.w3.org/2000/svg" xmlns:xlink="http://www.w3.org/1999/xlink" x="0px" y="0px"
	 viewBox="0 0 103.2 114.3" style="enable-background:new 0 0 103.2 114.3;" xml:space="preserve">
<style type="text/css">
	.st0{fill:none;stroke:#000000;stroke-width:2;stroke-linecap:round;stroke-miterlimit:10;}
	.st1{fill:none;stroke:#000000;stroke-width:2;}
</style>
<path class="st0" d="M79.6,27.5H68.7"/>
<path class="st0" d="M74,21.1h13.2c0-3.3,2.1-6,4.6-6s4.6,2.7,4.6,6h5.9"/>
<path class="st0" d="M23.3,8.2L14.2,8c0-2.9-1.8-5.2-4-5.2c-2.2,0-4,2.3-4,5.2H1"/>
<path class="st0" d="M50.4,113.3L49.3,1.2c0,0-12,2.3-13.7,16.5c0,0-6,26.7-9.4,95.6H50.4z"/>
<path class="st1" d="M78.7,113.3c0,0-5.6-60.8-7.3-63.4c-1.7-2.6-10-9.4-16.9-8.7v72.1H78.7z"/>
<path class="st1" d="M72.5,58.6c0,0-12.6-1.9-17.4-0.9L72.5,58.6z"/>
<path class="st0" d="M72.5,58.6c0,0-12.6-1.9-17.4-0.9"/>
<path class="st1" d="M62.2,72.8c-2.7-0.1-5.4-0.1-7.1,0.2L62.2,72.8z"/>
<path class="st0" d="M62.2,72.8c-2.7-0.1-5.4-0.1-7.1,0.2"/>
<path class="st1" d="M62.2,86.9c-2.7-0.1-5.4-0.1-7.1,0.2L62.2,86.9z"/>
<path class="st0" d="M62.2,86.9c-2.7-0.1-5.4-0.1-7.1,0.2"/>
<path class="st1" d="M75.2,82.3c0,0-14.5-1.9-20.1-0.9L75.2,82.3z"/>
<path class="st0" d="M75.2,82.3c0,0-14.5-1.9-20.1-0.9"/>
<path class="st0" d="M49.9,17.1c-2,0-9.3,0.2-15,4.4"/>
<path class="st1" d="M49.7,46.1c-3.4,0-14.3,1.2-18.9,2.9L49.7,46.1z"/>
<path class="st0" d="M49.7,46.1c-3.4,0-14.3,1.2-18.9,2.9"/>
<path class="st1" d="M49.7,81c0,0-12.3,0.2-21.3,1.6L49.7,81z"/>
<path class="st0" d="M49.7,81c0,0-12.3,0.2-21.3,1.6"/>
<path class="st0" d="M82.4,113.3h-62"/>
</svg>
