<svg width="135" height="64" viewBox="0 0 135 64" fill="none" xmlns="http://www.w3.org/2000/svg">
<path fill-rule="evenodd" clip-rule="evenodd" d="M31.7224 42.2267V42.1734H33.2823C33.6777 42.1734 33.9633 42.1825 34.1407 42.1999C34.3174 42.2163 34.4987 42.2741 34.6838 42.3713C34.8687 42.4682 35.0086 42.5992 35.1033 42.765C35.1977 42.9312 35.245 43.135 35.245 43.3754C35.245 43.651 35.1606 43.9141 34.9923 44.1632C34.8238 44.4137 34.5863 44.6238 34.2789 44.7962L34.6683 45.3854C34.7538 45.5324 34.9786 45.8561 35.3436 46.3543C35.7087 46.8529 35.9917 47.1571 36.1911 47.2654C36.3904 47.3748 36.583 47.4288 36.7703 47.4288C36.954 47.4288 37.1661 47.3585 37.4053 47.2173L37.4283 47.2919C37.129 47.5347 36.7409 47.6553 36.2635 47.6553C35.9458 47.6553 35.6712 47.5626 35.4433 47.3762C35.2146 47.1898 34.8149 46.6791 34.246 45.8446C34.2403 45.8394 34.2379 45.8342 34.2379 45.8293L33.6827 44.9899L33.1939 45.0053H32.7483V47.0815C32.7483 47.2487 32.7702 47.3686 32.8147 47.4417C32.8589 47.5135 32.9678 47.5501 33.1388 47.5501V47.6027H31.7224V47.5501C31.897 47.5424 32.0051 47.5058 32.0475 47.4393C32.091 47.3724 32.1122 47.2376 32.1122 47.0341V42.7169C32.1122 42.5762 32.0945 42.4605 32.0578 42.3685C32.0203 42.2769 31.9083 42.2292 31.7224 42.2267ZM32.7483 42.3246V44.8614H33.3243C33.7784 44.8614 34.1138 44.7562 34.3336 44.5457C34.5531 44.3356 34.663 44.059 34.663 43.7165C34.663 43.3831 34.5556 43.0685 34.3403 42.7702C34.1244 42.473 33.7438 42.3246 33.1999 42.3246H32.7483Z" fill="white"/>
<path fill-rule="evenodd" clip-rule="evenodd" d="M39.9004 42.2267V42.1733H43.3696V42.921H43.3166C43.2407 42.6416 43.1785 42.4782 43.1272 42.4294C43.0749 42.3796 42.9498 42.3549 42.7498 42.3549H40.9263V44.7937H42.619C42.7876 44.7937 42.8936 44.7787 42.9385 44.747C42.983 44.7171 43.0074 44.6718 43.0099 44.6129H43.0633V45.1261H43.0099C42.9972 45.0543 42.9682 45.0066 42.9219 44.9815C42.876 44.9571 42.7904 44.945 42.6639 44.945H40.9263V46.6212C40.9263 46.8751 40.951 47.0577 40.9977 47.1685C41.045 47.2807 41.1207 47.3511 41.2253 47.3786C41.3288 47.4075 41.4857 47.4214 41.6949 47.4214H42.6706C42.9806 47.4214 43.1785 47.4113 43.265 47.3901C43.3509 47.3699 43.4237 47.3274 43.4838 47.2654C43.5439 47.2023 43.5909 47.0664 43.6227 46.8553H43.6764V47.603H39.9004V47.55C40.0276 47.5423 40.1248 47.5183 40.1912 47.4782C40.2577 47.4382 40.2909 47.3323 40.2909 47.1622V42.7688C40.2909 42.5702 40.2736 42.4294 40.2386 42.3486C40.2025 42.2667 40.0905 42.2267 39.9004 42.2267Z" fill="white"/>
<path fill-rule="evenodd" clip-rule="evenodd" d="M48.8293 42.234L49.0894 42.9137L49.0435 42.921C49.0435 42.9186 48.9746 42.8468 48.8368 42.7061C48.6993 42.565 48.541 42.4556 48.3636 42.3786C48.1858 42.3019 47.9851 42.2639 47.7621 42.2639C47.3871 42.2639 47.0892 42.3698 46.8684 42.5827C46.6489 42.7939 46.5397 43.0496 46.5397 43.3492C46.5397 43.5478 46.5902 43.7203 46.691 43.8687C46.792 44.0175 47.0079 44.1558 47.3373 44.2826C47.9024 44.4676 48.2893 44.6087 48.4975 44.7032C48.7053 44.799 48.9057 44.9586 49.0986 45.185C49.2916 45.4132 49.3887 45.7035 49.3887 46.0574C49.3887 46.2058 49.3704 46.3466 49.3361 46.4814C49.3015 46.6149 49.2456 46.7445 49.1675 46.8692C49.0908 46.9936 48.9979 47.1068 48.8891 47.2089C48.7809 47.3107 48.6714 47.3887 48.5586 47.4417C48.4463 47.4943 48.2688 47.5347 48.0275 47.5626C47.7865 47.5887 47.6271 47.603 47.549 47.603H46.0796V46.0247H46.1333C46.1386 46.5456 46.2634 46.9082 46.5075 47.1128C46.7524 47.318 47.1327 47.4215 47.6487 47.4215C48.1179 47.4215 48.4745 47.312 48.7173 47.0943C48.9604 46.8752 49.082 46.6138 49.082 46.3062C49.082 46.1202 49.04 45.9616 48.9544 45.831C48.8696 45.7 48.7516 45.5843 48.6 45.4846C48.4477 45.3854 48.1604 45.2645 47.7366 45.1198C47.3158 44.9739 47.0203 44.8457 46.8493 44.7369C46.6782 44.6279 46.5355 44.4628 46.421 44.2426C46.3054 44.0224 46.2485 43.7983 46.2485 43.5694C46.2485 43.1489 46.3952 42.7967 46.6874 42.5106C46.9811 42.2256 47.3649 42.0828 47.8412 42.0828C48.0264 42.0828 48.225 42.1044 48.4402 42.1462C48.6548 42.1873 48.7746 42.2138 48.8 42.2267C48.8085 42.2315 48.8191 42.234 48.8293 42.234Z" fill="white"/>
<path fill-rule="evenodd" clip-rule="evenodd" d="M56.3181 41.9922L56.058 42.6416H56.004C56.0146 42.6012 56.0192 42.5486 56.0192 42.4821C56.0192 42.4239 55.999 42.3876 55.957 42.3713C55.916 42.3549 55.851 42.3472 55.7605 42.3472H54.319V46.9961C54.319 47.1887 54.3346 47.3197 54.3667 47.3901C54.3971 47.4591 54.4406 47.5033 54.4943 47.5222C54.5476 47.541 54.636 47.55 54.7561 47.55V47.603H53.2624V47.55C53.4489 47.5375 53.5666 47.5019 53.6136 47.4431C53.6606 47.3835 53.684 47.2619 53.684 47.0741V42.3472H52.305C52.1658 42.3472 52.075 42.3549 52.0318 42.3713C51.9894 42.3876 51.9689 42.4277 51.9689 42.4922C51.9689 42.5246 51.9781 42.5751 51.9986 42.6416H51.9449L51.6848 41.9922H51.7382C51.7831 42.0779 51.8276 42.1295 51.8711 42.1469C51.9145 42.165 52.0089 42.1734 52.1527 42.1734H55.8128C55.957 42.1734 56.0605 42.165 56.1238 42.1469C56.1877 42.1295 56.2354 42.0779 56.2648 41.9922H56.3181V41.9922Z" fill="white"/>
<path fill-rule="evenodd" clip-rule="evenodd" d="M61.6491 45.1034H60.0249L59.199 47.1559C59.1418 47.3032 59.1124 47.3938 59.1124 47.4276C59.1124 47.5095 59.1736 47.5499 59.2962 47.5499V47.6029H58.4771V47.5499C58.587 47.5499 58.6788 47.5234 58.7538 47.4705C58.8276 47.4179 58.9107 47.2806 59.0001 47.059L61.0017 42.0907H61.101L63.0577 46.8893C63.0577 46.9144 63.1076 47.0301 63.2086 47.2377C63.3097 47.4454 63.4631 47.5499 63.6698 47.5499V47.6029H62.3831V47.5499C62.5004 47.5499 62.5591 47.5046 62.5591 47.414C62.5591 47.3524 62.5298 47.2541 62.4722 47.1182C62.4637 47.1078 62.4545 47.0931 62.4467 47.0705C62.4418 47.0465 62.4379 47.0339 62.435 47.0339L61.6491 45.1034ZM60.0864 44.9522H61.5788L60.8317 43.1014L60.0864 44.9522Z" fill="white"/>
<path fill-rule="evenodd" clip-rule="evenodd" d="M71.2653 47.6028H70.2239V46.7646C69.6934 47.3485 69.0612 47.6405 68.3258 47.6405C67.7809 47.6405 67.3483 47.4892 67.0278 47.1875C66.7076 46.8841 66.5479 46.4663 66.5479 45.9329V42.6798C66.5479 42.4833 66.5235 42.3586 66.4765 42.3056C66.4291 42.253 66.3168 42.2265 66.1418 42.2265V42.1736H67.6052V42.2265C67.4505 42.2265 67.3416 42.2506 67.278 42.2983C67.2155 42.3464 67.1833 42.4593 67.1833 42.6394V45.6179C67.1833 46.2423 67.3317 46.6879 67.6279 46.9534C67.9236 47.2199 68.2618 47.3534 68.64 47.3534C69.2347 47.3534 69.7631 47.0917 70.2239 46.5684V42.8909C70.2239 42.569 70.196 42.3774 70.1387 42.3171C70.0808 42.2568 69.9917 42.2265 69.8705 42.2265H69.8182V42.1736H71.2653V42.2265C71.0869 42.2366 70.9748 42.2655 70.9289 42.3146C70.883 42.3638 70.86 42.4582 70.86 42.5951V47.0189C70.86 47.1934 70.8688 47.3081 70.8854 47.3624C70.9035 47.4164 70.9392 47.4603 70.9925 47.4969C71.0448 47.5325 71.1371 47.5499 71.2653 47.5499V47.6028V47.6028Z" fill="white"/>
<path fill-rule="evenodd" clip-rule="evenodd" d="M74.0137 42.2267V42.1734H75.5735C75.9693 42.1734 76.2549 42.1825 76.4323 42.1999C76.609 42.2163 76.7899 42.2741 76.9755 42.3713C77.1599 42.4682 77.3002 42.5992 77.3949 42.765C77.4896 42.9312 77.5366 43.135 77.5366 43.3754C77.5366 43.651 77.4522 43.9141 77.284 44.1632C77.1154 44.4137 76.8783 44.6238 76.5705 44.7962L76.9603 45.3854C77.0451 45.5324 77.2698 45.8561 77.6352 46.3543C78.0003 46.8529 78.2834 47.1571 78.4823 47.2654C78.6823 47.3748 78.8746 47.4288 79.0619 47.4288C79.2456 47.4288 79.4577 47.3585 79.6966 47.2173L79.7195 47.2919C79.4209 47.5347 79.0329 47.6553 78.5555 47.6553C78.2374 47.6553 77.9628 47.5626 77.7349 47.3762C77.5062 47.1898 77.1066 46.6791 76.5376 45.8446C76.5319 45.8394 76.5295 45.8342 76.5295 45.8293L75.9746 44.9899L75.4852 45.0053H75.0399V47.0815C75.0399 47.2487 75.0618 47.3686 75.106 47.4417C75.1509 47.5135 75.2594 47.5501 75.4301 47.5501V47.6027H74.0137V47.5501C74.1886 47.5424 74.2967 47.5058 74.3391 47.4393C74.3826 47.3724 74.4042 47.2376 74.4042 47.0341V42.7169C74.4042 42.5762 74.3858 42.4605 74.3494 42.3685C74.3123 42.2769 74.1999 42.2292 74.0137 42.2267ZM75.0399 42.3246V44.8614H75.6156C76.0697 44.8614 76.4054 44.7562 76.6252 44.5457C76.8447 44.3356 76.9546 44.059 76.9546 43.7165C76.9546 43.3831 76.8475 43.0685 76.632 42.7702C76.4157 42.473 76.0354 42.3246 75.4916 42.3246H75.0399Z" fill="white"/>
<path fill-rule="evenodd" clip-rule="evenodd" d="M85.1115 45.1034H83.488L82.6621 47.1559C82.6045 47.3032 82.5752 47.3938 82.5752 47.4276C82.5752 47.5095 82.6367 47.5499 82.759 47.5499V47.6029H81.9395V47.5499C82.0494 47.5499 82.1409 47.5234 82.2162 47.4705C82.2904 47.4179 82.3734 47.2806 82.4625 47.059L84.4641 42.0907H84.5637L86.5205 46.8893C86.5205 46.9144 86.5703 47.0301 86.6717 47.2377C86.7725 47.4454 86.9258 47.5499 87.1322 47.5499V47.6029H85.8455V47.5499C85.9628 47.5499 86.0215 47.5046 86.0215 47.414C86.0215 47.3524 85.9922 47.2541 85.9353 47.1182C85.9261 47.1078 85.9169 47.0931 85.9098 47.0705C85.9045 47.0465 85.9003 47.0339 85.8978 47.0339L85.1115 45.1034ZM83.5488 44.9522H85.0415L84.2945 43.1014L83.5488 44.9522Z" fill="white"/>
<path fill-rule="evenodd" clip-rule="evenodd" d="M94.1232 42.1734H95.1798V42.2267C95.0218 42.2316 94.9119 42.2653 94.8511 42.3284C94.7897 42.3901 94.7593 42.5225 94.7593 42.7249V47.6706L90.355 43.0569V47.0741C90.355 47.2023 90.3648 47.2971 90.3843 47.3584C90.4051 47.4201 90.4327 47.4619 90.4684 47.4831C90.5055 47.5058 90.5988 47.527 90.7458 47.55V47.6026H89.6966V47.55C89.8856 47.55 90.003 47.5169 90.0489 47.4504C90.0949 47.3835 90.1175 47.2253 90.1175 46.9745V43.2987C90.1175 42.9778 90.0715 42.7148 89.9811 42.5106C89.8902 42.3057 89.681 42.2113 89.3513 42.2267V42.1734H90.3843L94.5214 46.5065V42.6716C94.5214 42.4653 94.484 42.3399 94.4101 42.2946C94.3348 42.249 94.2391 42.2267 94.1232 42.2267V42.1734V42.1734Z" fill="white"/>
<path fill-rule="evenodd" clip-rule="evenodd" d="M102.2 41.9922L101.941 42.6416H101.886C101.897 42.6012 101.902 42.5486 101.902 42.4821C101.902 42.4239 101.882 42.3876 101.84 42.3713C101.798 42.3549 101.734 42.3472 101.643 42.3472H100.202V46.9961C100.202 47.1887 100.217 47.3197 100.249 47.3901C100.279 47.4591 100.323 47.5033 100.377 47.5222C100.43 47.541 100.518 47.55 100.638 47.55V47.603H99.145V47.55C99.3313 47.5375 99.4486 47.5019 99.4956 47.4431C99.543 47.3835 99.5659 47.2619 99.5659 47.0741V42.3472H98.1877C98.0485 42.3472 97.9576 42.3549 97.9145 42.3713C97.8721 42.3876 97.8516 42.4277 97.8516 42.4922C97.8516 42.5246 97.8608 42.5751 97.881 42.6416H97.8276L97.5671 41.9922H97.6205C97.665 42.0779 97.7099 42.1295 97.7534 42.1469C97.7968 42.165 97.8916 42.1734 98.0354 42.1734H101.695C101.84 42.1734 101.943 42.165 102.006 42.1469C102.07 42.1295 102.118 42.0779 102.147 41.9922H102.2V41.9922Z" fill="white"/>
<path fill-rule="evenodd" clip-rule="evenodd" d="M38.5938 23.3949C38.5938 19.0785 36.5512 16.3163 32.4657 15.108C36.3763 14.2446 38.3316 11.8995 38.3316 8.07253C38.3316 5.68453 37.5291 3.78534 35.924 2.37533C34.3188 0.936728 32.3194 0.217621 29.9258 0.217621C27.621 0.217621 25.7084 0.864618 24.1913 2.15965C22.6735 3.42543 21.7833 5.18107 21.5211 7.42518H23.5786C24.3083 3.79963 26.4237 1.98719 29.9258 1.98719C31.7649 1.98719 33.2679 2.56242 34.4355 3.71357C35.6024 4.83544 36.1865 6.28867 36.1865 8.07253C36.1865 9.94316 35.6465 11.3671 34.5662 12.3454C33.458 13.3527 31.9833 13.8561 30.1449 13.8561H28.3066V16.4027H30.1449C31.4871 16.4027 32.8007 16.9065 34.0853 17.9134C35.7777 19.237 36.624 21.0641 36.624 23.3949C36.624 25.2649 35.9384 26.8762 34.5662 28.2288C33.1947 29.5235 31.5458 30.1712 29.6198 30.1712C28.1313 30.1712 26.7601 29.6963 25.5045 28.7469C24.2203 27.7971 23.3888 26.6174 23.0092 25.2074H21.0833C21.5794 27.3369 22.5714 28.9911 24.0595 30.1712C25.6063 31.3502 27.4599 31.9404 29.6198 31.9404C32.2172 31.9404 34.3623 31.1492 36.0554 29.5667C37.7478 28.0128 38.5938 25.9558 38.5938 23.3949ZM75.6304 21.841C75.6304 18.8485 74.5935 16.3306 72.5216 14.2875C70.4786 12.2737 67.925 11.2668 64.8604 11.2668L62.8906 11.4392L61.0081 11.957L59.1697 12.8632L65.8238 0.908169H63.7663L55.9302 14.7627C55.6676 15.2515 55.4199 15.7627 55.1859 16.295C54.4057 18.0709 54.135 19.9161 54.135 21.841C54.135 24.9485 55.1276 27.5093 57.1119 29.5235C59.0966 31.4805 61.6795 32.4585 64.8604 32.4585C67.954 32.4585 70.5225 31.4512 72.5654 29.4371C74.6084 27.4233 75.6304 24.891 75.6304 21.841ZM73.879 21.841C73.879 24.3733 73.0178 26.4878 71.2957 28.1856C69.5736 29.8834 67.4289 30.7321 64.8604 30.7321C62.293 30.7321 60.1476 29.8834 58.4255 28.1856C56.7327 26.5167 55.8867 24.4018 55.8867 21.841C55.8867 19.3952 56.7617 17.3092 58.5131 15.5825C60.2642 13.8561 62.3799 12.9928 64.8604 12.9928C67.3706 12.9928 69.5012 13.8704 71.2522 15.6257C73.0033 17.4096 73.879 19.4816 73.879 21.841Z" fill="white"/>
<path fill-rule="evenodd" clip-rule="evenodd" d="M15.2787 15.1024C15.3739 15.1023 15.451 15.0252 15.451 14.93V14.93C15.451 14.8349 15.3739 14.7577 15.2787 14.7577H0.999999C0.447714 14.7577 0 15.2054 0 15.7577V63C0 63.5523 0.447715 64 1 64H134.886C134.949 64 135 63.9488 135 63.8857V63.8857V15.7669C135 15.2148 134.553 14.7672 134.001 14.7669L119.717 14.7585C119.621 14.7585 119.542 14.8368 119.542 14.9335V14.9335C119.542 15.0302 119.621 15.1086 119.717 15.1086L133.647 15.1073C134.2 15.1072 134.647 15.5549 134.647 16.1073L134.647 62.7188C134.647 63.2711 134.199 63.7188 133.647 63.7188L1.3506 63.7185C0.798303 63.7185 0.350577 63.2707 0.350593 62.7185L0.35195 16.1062C0.351966 15.554 0.799508 15.1064 1.35167 15.1062L15.2787 15.1024Z" fill="white"/>
<path fill-rule="evenodd" clip-rule="evenodd" d="M91.5369 26.7555C93.7937 30.4291 96.6551 32.1524 100.934 31.9681C103.295 31.8663 105.245 30.988 106.794 29.5142C114.586 22.4802 113.248 -1.56471 98.9118 0.0804794C90.6082 1.03268 88.5288 11.1579 88.8773 18.0431C89.2208 21.7252 90.1968 24.5734 91.5369 26.7555ZM93.1173 25.813C98.7511 23.2 102.588 20.8053 104.627 18.6292C107.358 15.9042 108.841 13.0947 109.079 10.2011C109.796 13.1943 109.981 16.0471 109.632 18.7591C109.051 22.8864 107.77 25.9378 105.786 27.914C101.914 31.5974 95.6264 30.802 93.1173 25.813ZM92.6003 24.8403C88.3175 17.169 90.9181 -0.800309 102.573 2.07338C106.916 3.14404 108.854 8.07441 107.841 11.7073C106.444 16.7098 101.104 21.044 92.6003 24.8403Z" fill="white"/>
</svg>
